<?xml version="1.0" encoding="UTF-8"?>
<svg width="700pt" height="700pt" version="1.1" viewBox="0 0 700 700" xmlns="http://www.w3.org/2000/svg">
 <g>
  <path d="m163.33 163.33c25.773 0 46.668-20.891 46.668-46.664 0-25.773-20.895-46.668-46.668-46.668-25.773 0-46.664 20.895-46.664 46.668 0 25.773 20.891 46.664 46.664 46.664z"/>
  <path d="m163.33 326.67c25.773 0 46.668-20.895 46.668-46.668s-20.895-46.668-46.668-46.668c-25.773 0-46.664 20.895-46.664 46.668s20.891 46.668 46.664 46.668z"/>
  <path d="m210 443.33c0 25.773-20.895 46.668-46.668 46.668-25.773 0-46.664-20.895-46.664-46.668 0-25.773 20.891-46.664 46.664-46.664 25.773 0 46.668 20.891 46.668 46.664z"/>
  <path d="m280 466.67c-12.887 0-23.332-10.449-23.332-23.336s10.445-23.332 23.332-23.332h280c12.887 0 23.332 10.445 23.332 23.332s-10.445 23.336-23.332 23.336z"/>
  <path d="m256.67 280c0 12.887 10.445 23.332 23.332 23.332h280c12.887 0 23.332-10.445 23.332-23.332s-10.445-23.332-23.332-23.332h-280c-12.887 0-23.332 10.445-23.332 23.332z"/>
  <path d="m280 140c-12.887 0-23.332-10.445-23.332-23.332s10.445-23.336 23.332-23.336h280c12.887 0 23.332 10.449 23.332 23.336s-10.445 23.332-23.332 23.332z"/>
 </g>
</svg>
